<svg width="320" height="320" viewBox="0 0 320 320" fill="none" xmlns="http://www.w3.org/2000/svg">
<path d="M320 320H0V134.482L160 22.9468L320 134.482V320Z" fill="#92D6F4"/>
<path d="M320 134.482L160 22.9468V320H320V134.482Z" fill="#4BBAED"/>
<path d="M244.375 303.125H75.625V0H94.375C94.375 5.16846 98.5815 9.375 103.75 9.375C108.918 9.375 113.125 5.16846 113.125 0H131.875C131.875 5.16846 136.082 9.375 141.25 9.375C146.418 9.375 150.625 5.16846 150.625 0H169.375C169.375 5.16846 173.582 9.375 178.75 9.375C183.918 9.375 188.125 5.16846 188.125 0H206.875C206.875 5.16846 211.082 9.375 216.25 9.375C221.418 9.375 225.625 5.16846 225.625 0H244.375V303.125Z" fill="#FCEEA9"/>
<path d="M244.375 0H225.625C225.625 5.16846 221.418 9.375 216.25 9.375C211.082 9.375 206.875 5.16846 206.875 0H188.125C188.125 5.16846 183.918 9.375 178.75 9.375C173.582 9.375 169.375 5.16846 169.375 0H160V303.125H244.375V0Z" fill="#FBDE55"/>
<path d="M101.25 171.25H220V190H101.25V171.25Z" fill="#FF9900"/>
<path d="M101.25 208.75H220V227.5H101.25V208.75Z" fill="#FF9900"/>
<path d="M101.25 95H220V113.75H101.25V95Z" fill="#FF9900"/>
<path d="M101.25 132.5H220V151.25H101.25V132.5Z" fill="#FF9900"/>
<path d="M320 320H0V134.421L160 253.923L320 134.421V320Z" fill="#0673A4"/>
<path d="M320 320V134.421L160 253.923V320H320Z" fill="#054D6E"/>
</svg>
