<svg width="347" height="320" viewBox="0 0 347 320" fill="none" xmlns="http://www.w3.org/2000/svg">
<path d="M346.385 209.725H0V0H346.385V209.725Z" fill="#FCEEA9"/>
<path d="M346.385 209.725H173.192V0H346.385V209.725Z" fill="#FBDE55"/>
<path d="M229.474 320H116.911L134.382 230.021H212.003L229.474 320Z" fill="#0673A4"/>
<path d="M173.192 320H229.474L212.003 230.021H173.192V320Z" fill="#054D6E"/>
<path d="M346.385 250.317H0V189.429H346.385V250.317Z" fill="#0999DB"/>
<path d="M102.833 299.704H243.552V320H102.833V299.704Z" fill="#0999DB"/>
<path d="M305.793 169.133H40.592V40.592H60.888V148.837H305.793V169.133Z" fill="#FF9900"/>
<path d="M81.8605 94.7146H102.156V128.541H81.8605V94.7146Z" fill="#FF7703"/>
<path d="M122.452 67.6533H142.748V128.541H122.452V67.6533Z" fill="#FF7703"/>
<path d="M163.044 81.1838H183.34V128.541H163.044V81.1838Z" fill="#FF7703"/>
<path d="M346.385 250.317H173.192V189.429H346.385V250.317Z" fill="#0673A4"/>
<path d="M173.192 299.704H243.552V320H173.192V299.704Z" fill="#0673A4"/>
<path d="M173.192 148.837H305.793V169.133H173.192V148.837Z" fill="#FF7703"/>
<path d="M203.636 54.1226H223.932V128.541H203.636V54.1226Z" fill="#FF4F18"/>
<path d="M244.228 108.245H264.524V128.541H244.228V108.245Z" fill="#FF4F18"/>
<path d="M173.192 81.1838H183.34V128.541H173.192V81.1838Z" fill="#FF4F18"/>
</svg>
