<svg width="240" height="240" viewBox="0 0 240 240" fill="none" xmlns="http://www.w3.org/2000/svg">
<rect width="240" height="240" fill="#602144" fill-opacity="0.2"/>
<path d="M104.833 104.833C107.611 104.833 109.863 102.582 109.863 99.8039C109.863 97.0262 107.611 94.7744 104.833 94.7744C102.055 94.7744 99.8036 97.0262 99.8036 99.8039C99.8036 102.582 102.055 104.833 104.833 104.833Z" fill="#602144"/>
<path d="M139.617 128.585C138.684 127.185 136.365 127.185 135.432 128.585L130.403 136.129C129.89 136.9 129.841 137.892 130.278 138.71C130.715 139.528 131.567 140.039 132.495 140.039H135.01V145.068C135.01 146.457 136.135 147.583 137.525 147.583C138.915 147.583 140.039 146.457 140.039 145.068V140.039H142.554C143.482 140.039 144.335 139.528 144.772 138.71C145.209 137.892 145.16 136.9 144.646 136.129L139.617 128.585Z" fill="#602144"/>
<path d="M155.128 79.6855H84.7151C81.9376 79.6855 79.6857 81.9375 79.6857 84.715V135.01C79.6857 137.787 81.9376 140.039 84.7151 140.039H115.04C116.297 151.338 125.895 160.157 137.525 160.157C150.005 160.157 160.157 150.004 160.157 137.524V135.01V84.715C160.157 81.9375 157.905 79.6855 155.128 79.6855ZM111.498 112.983C110.611 112.222 109.317 112.173 108.374 112.863L89.7446 126.526V89.7445H150.098V117.407C150.098 117.407 140.123 106.917 136.974 103.262C136.484 102.693 135.798 102.329 135.047 102.318C134.325 102.302 133.578 102.631 133.094 103.205L119.185 119.569L111.498 112.983ZM154.928 140.039C153.705 148.567 146.391 155.128 137.525 155.128C128.658 155.128 121.345 148.567 120.122 140.039C120.004 139.216 119.921 138.38 119.921 137.524C119.921 127.803 127.802 119.921 137.525 119.921C147.247 119.921 155.128 127.803 155.128 137.524C155.128 138.38 155.046 139.216 154.928 140.039Z" fill="#602144"/>
<path d="M76.67 203.14C75.7367 203.14 74.8967 202.939 74.15 202.538C73.4127 202.127 72.8293 201.544 72.4 200.788C71.98 200.023 71.77 199.131 71.77 198.114C71.77 197.097 71.98 196.21 72.4 195.454C72.8293 194.689 73.4127 194.105 74.15 193.704C74.8967 193.293 75.7367 193.088 76.67 193.088C77.3047 193.088 77.8693 193.163 78.364 193.312C78.868 193.461 79.3673 193.676 79.862 193.956C80.0673 194.068 80.17 194.245 80.17 194.488C80.17 194.628 80.1187 194.754 80.016 194.866C79.9133 194.969 79.778 195.02 79.61 195.02C79.5167 195.02 79.4327 195.001 79.358 194.964C78.9473 194.749 78.546 194.586 78.154 194.474C77.762 194.362 77.3093 194.306 76.796 194.306C75.9933 194.306 75.3073 194.474 74.738 194.81C74.178 195.137 73.7533 195.589 73.464 196.168C73.184 196.737 73.044 197.386 73.044 198.114C73.044 198.842 73.184 199.495 73.464 200.074C73.7533 200.643 74.178 201.096 74.738 201.432C75.3073 201.759 75.9933 201.922 76.796 201.922C77.3093 201.922 77.762 201.866 78.154 201.754C78.546 201.642 78.9473 201.479 79.358 201.264C79.4327 201.227 79.5167 201.208 79.61 201.208C79.778 201.208 79.9133 201.259 80.016 201.362C80.1187 201.465 80.17 201.591 80.17 201.74C80.17 201.983 80.0673 202.16 79.862 202.272C79.3673 202.552 78.868 202.767 78.364 202.916C77.8693 203.065 77.3047 203.14 76.67 203.14ZM82.4704 203.07C82.293 203.07 82.1437 203.009 82.0224 202.888C81.901 202.767 81.8404 202.617 81.8404 202.44V193.354C81.8404 193.177 81.901 193.027 82.0224 192.906C82.1437 192.775 82.293 192.71 82.4704 192.71C82.657 192.71 82.811 192.771 82.9324 192.892C83.0537 193.013 83.1144 193.167 83.1144 193.354V202.44C83.1144 202.617 83.049 202.767 82.9184 202.888C82.797 203.009 82.6477 203.07 82.4704 203.07ZM85.9287 194.404C85.7327 194.404 85.5647 194.334 85.4247 194.194C85.2847 194.054 85.2147 193.886 85.2147 193.69V193.634C85.2147 193.438 85.2847 193.27 85.4247 193.13C85.5647 192.99 85.7327 192.92 85.9287 192.92H86.0127C86.2087 192.92 86.3767 192.99 86.5167 193.13C86.6567 193.27 86.7267 193.438 86.7267 193.634V193.69C86.7267 193.886 86.6567 194.054 86.5167 194.194C86.3767 194.334 86.2087 194.404 86.0127 194.404H85.9287ZM85.9567 203.07C85.7794 203.07 85.63 203.009 85.5087 202.888C85.3874 202.767 85.3267 202.617 85.3267 202.44V196.434C85.3267 196.257 85.3874 196.107 85.5087 195.986C85.63 195.855 85.7794 195.79 85.9567 195.79C86.1434 195.79 86.2974 195.851 86.4187 195.972C86.54 196.093 86.6007 196.247 86.6007 196.434V202.44C86.6007 202.617 86.5354 202.767 86.4047 202.888C86.2834 203.009 86.134 203.07 85.9567 203.07ZM92.117 203.14C91.445 203.14 90.8244 202.991 90.255 202.692C89.6857 202.393 89.2284 201.964 88.883 201.404C88.547 200.844 88.379 200.186 88.379 199.43C88.379 198.674 88.547 198.016 88.883 197.456C89.2284 196.896 89.6857 196.467 90.255 196.168C90.8244 195.869 91.445 195.72 92.117 195.72C92.6117 195.72 93.0364 195.785 93.391 195.916C93.755 196.037 94.091 196.196 94.399 196.392C94.5857 196.513 94.679 196.677 94.679 196.882C94.679 197.022 94.623 197.153 94.511 197.274C94.4084 197.386 94.287 197.442 94.147 197.442C94.0444 197.442 93.9417 197.414 93.839 197.358C93.531 197.199 93.265 197.087 93.041 197.022C92.8264 196.947 92.5557 196.91 92.229 196.91C91.4264 196.91 90.7964 197.143 90.339 197.61C89.8817 198.067 89.653 198.674 89.653 199.43C89.653 200.186 89.8817 200.797 90.339 201.264C90.7964 201.721 91.4264 201.95 92.229 201.95C92.5557 201.95 92.8264 201.917 93.041 201.852C93.265 201.777 93.531 201.661 93.839 201.502C93.9417 201.446 94.0444 201.418 94.147 201.418C94.287 201.418 94.4084 201.479 94.511 201.6C94.623 201.712 94.679 201.838 94.679 201.978C94.679 202.183 94.5857 202.347 94.399 202.468C94.091 202.664 93.755 202.827 93.391 202.958C93.0364 203.079 92.6117 203.14 92.117 203.14ZM96.9079 203.07C96.7305 203.07 96.5812 203.009 96.4599 202.888C96.3385 202.767 96.2779 202.617 96.2779 202.44V193.354C96.2779 193.177 96.3385 193.027 96.4599 192.906C96.5812 192.775 96.7305 192.71 96.9079 192.71C97.0852 192.71 97.2345 192.775 97.3559 192.906C97.4865 193.027 97.5519 193.177 97.5519 193.354V199.08L100.884 196C101.024 195.879 101.164 195.818 101.304 195.818C101.519 195.818 101.673 195.879 101.766 196C101.869 196.121 101.92 196.266 101.92 196.434C101.92 196.593 101.841 196.751 101.682 196.91L99.6659 198.716L102.2 202.076C102.293 202.197 102.34 202.323 102.34 202.454C102.34 202.641 102.279 202.79 102.158 202.902C102.037 203.014 101.883 203.07 101.696 203.07C101.603 203.07 101.509 203.047 101.416 203C101.323 202.953 101.243 202.888 101.178 202.804L98.7699 199.528L97.5519 200.634V202.44C97.5519 202.617 97.4865 202.767 97.3559 202.888C97.2345 203.009 97.0852 203.07 96.9079 203.07ZM110.008 203.14C108.645 203.14 107.964 202.524 107.964 201.292V196.952H106.97C106.895 196.952 106.83 196.929 106.774 196.882C106.727 196.826 106.704 196.761 106.704 196.686C106.704 196.593 106.746 196.513 106.83 196.448L108.734 194.586C108.818 194.502 108.897 194.46 108.972 194.46C109.046 194.46 109.107 194.488 109.154 194.544C109.21 194.6 109.238 194.665 109.238 194.74V195.86H110.82C110.978 195.86 111.109 195.911 111.212 196.014C111.314 196.117 111.366 196.247 111.366 196.406C111.366 196.555 111.314 196.686 111.212 196.798C111.109 196.901 110.978 196.952 110.82 196.952H109.238V201.18C109.238 201.544 109.322 201.777 109.49 201.88C109.667 201.973 109.886 202.02 110.148 202.02C110.334 202.02 110.521 201.992 110.708 201.936C110.745 201.927 110.782 201.917 110.82 201.908C110.866 201.899 110.922 201.894 110.988 201.894C111.118 201.894 111.235 201.945 111.338 202.048C111.44 202.141 111.492 202.258 111.492 202.398C111.492 202.613 111.384 202.776 111.17 202.888C110.806 203.056 110.418 203.14 110.008 203.14ZM115.944 203.14C115.225 203.14 114.595 202.986 114.054 202.678C113.512 202.37 113.092 201.936 112.794 201.376C112.504 200.807 112.36 200.158 112.36 199.43C112.36 198.702 112.504 198.058 112.794 197.498C113.092 196.929 113.512 196.49 114.054 196.182C114.595 195.874 115.225 195.72 115.944 195.72C116.653 195.72 117.278 195.874 117.82 196.182C118.361 196.49 118.781 196.929 119.079 197.498C119.378 198.058 119.528 198.702 119.528 199.43C119.528 200.158 119.378 200.807 119.079 201.376C118.781 201.936 118.361 202.37 117.82 202.678C117.278 202.986 116.653 203.14 115.944 203.14ZM115.944 201.978C116.326 201.978 116.69 201.889 117.036 201.712C117.39 201.535 117.68 201.255 117.904 200.872C118.137 200.489 118.254 200.004 118.254 199.416C118.254 198.837 118.137 198.357 117.904 197.974C117.68 197.591 117.39 197.316 117.036 197.148C116.69 196.971 116.326 196.882 115.944 196.882C115.552 196.882 115.178 196.971 114.824 197.148C114.478 197.316 114.194 197.591 113.97 197.974C113.746 198.357 113.634 198.837 113.634 199.416C113.634 200.004 113.746 200.489 113.97 200.872C114.194 201.255 114.478 201.535 114.824 201.712C115.178 201.889 115.552 201.978 115.944 201.978ZM127.384 203.14C126.87 203.14 126.422 203.019 126.04 202.776C125.666 202.533 125.377 202.202 125.172 201.782C124.976 201.362 124.878 200.9 124.878 200.396V196.42C124.878 196.243 124.938 196.093 125.06 195.972C125.19 195.851 125.344 195.79 125.522 195.79C125.699 195.79 125.848 195.851 125.97 195.972C126.091 196.093 126.152 196.243 126.152 196.42V200.256C126.152 201.395 126.665 201.964 127.692 201.964C128.158 201.964 128.574 201.843 128.938 201.6C129.311 201.357 129.661 201.031 129.988 200.62V196.42C129.988 196.243 130.048 196.093 130.17 195.972C130.3 195.851 130.454 195.79 130.632 195.79C130.809 195.79 130.958 195.851 131.08 195.972C131.201 196.093 131.262 196.243 131.262 196.42V202.426C131.262 202.603 131.201 202.757 131.08 202.888C130.958 203.009 130.809 203.07 130.632 203.07C130.454 203.07 130.3 203.009 130.17 202.888C130.048 202.757 129.988 202.603 129.988 202.426V201.852C129.633 202.244 129.25 202.557 128.84 202.79C128.429 203.023 127.944 203.14 127.384 203.14ZM134.109 206.29C133.932 206.29 133.782 206.225 133.661 206.094C133.54 205.973 133.479 205.823 133.479 205.646V196.42C133.479 196.243 133.54 196.093 133.661 195.972C133.782 195.851 133.932 195.79 134.109 195.79C134.286 195.79 134.436 195.851 134.557 195.972C134.688 196.093 134.753 196.243 134.753 196.42V196.784C135.434 196.075 136.232 195.72 137.147 195.72C137.726 195.72 138.272 195.869 138.785 196.168C139.308 196.457 139.728 196.887 140.045 197.456C140.372 198.016 140.535 198.674 140.535 199.43C140.535 200.186 140.372 200.849 140.045 201.418C139.728 201.978 139.308 202.407 138.785 202.706C138.272 202.995 137.726 203.14 137.147 203.14C136.232 203.14 135.434 202.785 134.753 202.076V205.646C134.753 205.833 134.692 205.987 134.571 206.108C134.45 206.229 134.296 206.29 134.109 206.29ZM136.965 201.95C137.656 201.95 138.211 201.731 138.631 201.292C139.051 200.853 139.261 200.233 139.261 199.43C139.261 198.627 139.051 198.007 138.631 197.568C138.211 197.129 137.656 196.91 136.965 196.91C136.536 196.91 136.13 197.008 135.747 197.204C135.374 197.391 135.042 197.643 134.753 197.96V200.9C135.042 201.217 135.374 201.474 135.747 201.67C136.13 201.857 136.536 201.95 136.965 201.95ZM142.941 203.07C142.764 203.07 142.614 203.009 142.493 202.888C142.372 202.767 142.311 202.617 142.311 202.44V193.354C142.311 193.177 142.372 193.027 142.493 192.906C142.614 192.775 142.764 192.71 142.941 192.71C143.128 192.71 143.282 192.771 143.403 192.892C143.524 193.013 143.585 193.167 143.585 193.354V202.44C143.585 202.617 143.52 202.767 143.389 202.888C143.268 203.009 143.118 203.07 142.941 203.07ZM148.947 203.14C148.229 203.14 147.599 202.986 147.057 202.678C146.516 202.37 146.096 201.936 145.797 201.376C145.508 200.807 145.363 200.158 145.363 199.43C145.363 198.702 145.508 198.058 145.797 197.498C146.096 196.929 146.516 196.49 147.057 196.182C147.599 195.874 148.229 195.72 148.947 195.72C149.657 195.72 150.282 195.874 150.823 196.182C151.365 196.49 151.785 196.929 152.083 197.498C152.382 198.058 152.531 198.702 152.531 199.43C152.531 200.158 152.382 200.807 152.083 201.376C151.785 201.936 151.365 202.37 150.823 202.678C150.282 202.986 149.657 203.14 148.947 203.14ZM148.947 201.978C149.33 201.978 149.694 201.889 150.039 201.712C150.394 201.535 150.683 201.255 150.907 200.872C151.141 200.489 151.257 200.004 151.257 199.416C151.257 198.837 151.141 198.357 150.907 197.974C150.683 197.591 150.394 197.316 150.039 197.148C149.694 196.971 149.33 196.882 148.947 196.882C148.555 196.882 148.182 196.971 147.827 197.148C147.482 197.316 147.197 197.591 146.973 197.974C146.749 198.357 146.637 198.837 146.637 199.416C146.637 200.004 146.749 200.489 146.973 200.872C147.197 201.255 147.482 201.535 147.827 201.712C148.182 201.889 148.555 201.978 148.947 201.978ZM156.135 203.14C155.724 203.14 155.342 203.056 154.987 202.888C154.642 202.72 154.366 202.477 154.161 202.16C153.956 201.833 153.853 201.46 153.853 201.04C153.853 200.349 154.124 199.799 154.665 199.388C155.216 198.977 156.018 198.772 157.073 198.772H158.767V198.66C158.767 198.044 158.613 197.601 158.305 197.33C158.006 197.059 157.535 196.924 156.891 196.924C156.536 196.924 156.219 196.952 155.939 197.008C155.668 197.064 155.365 197.148 155.029 197.26C154.954 197.279 154.894 197.288 154.847 197.288C154.707 197.288 154.586 197.237 154.483 197.134C154.38 197.031 154.329 196.905 154.329 196.756C154.329 196.504 154.45 196.327 154.693 196.224C155.486 195.888 156.294 195.72 157.115 195.72C157.759 195.72 158.3 195.851 158.739 196.112C159.187 196.373 159.514 196.714 159.719 197.134C159.934 197.545 160.041 197.993 160.041 198.478V202.44C160.041 202.617 159.976 202.767 159.845 202.888C159.724 203.009 159.574 203.07 159.397 203.07C159.22 203.07 159.07 203.009 158.949 202.888C158.828 202.767 158.767 202.617 158.767 202.44V202.076C158.076 202.785 157.199 203.14 156.135 203.14ZM156.611 202.02C157.022 202.02 157.418 201.922 157.801 201.726C158.184 201.521 158.506 201.269 158.767 200.97V199.794H157.241C155.832 199.794 155.127 200.163 155.127 200.9C155.127 201.236 155.239 201.507 155.463 201.712C155.696 201.917 156.079 202.02 156.611 202.02ZM165.13 203.14C164.552 203.14 164.001 202.995 163.478 202.706C162.965 202.407 162.545 201.978 162.218 201.418C161.901 200.849 161.742 200.186 161.742 199.43C161.742 198.674 161.901 198.016 162.218 197.456C162.545 196.887 162.965 196.457 163.478 196.168C164.001 195.869 164.552 195.72 165.13 195.72C166.045 195.72 166.843 196.075 167.524 196.784V193.354C167.524 193.167 167.585 193.013 167.706 192.892C167.837 192.771 167.991 192.71 168.168 192.71C168.346 192.71 168.495 192.775 168.616 192.906C168.738 193.027 168.798 193.177 168.798 193.354V202.44C168.798 202.617 168.738 202.767 168.616 202.888C168.495 203.009 168.346 203.07 168.168 203.07C167.991 203.07 167.837 203.009 167.706 202.888C167.585 202.767 167.524 202.617 167.524 202.44V202.076C166.843 202.785 166.045 203.14 165.13 203.14ZM165.312 201.95C165.742 201.95 166.143 201.857 166.516 201.67C166.899 201.474 167.235 201.217 167.524 200.9V197.96C167.235 197.643 166.899 197.391 166.516 197.204C166.143 197.008 165.742 196.91 165.312 196.91C164.622 196.91 164.066 197.129 163.646 197.568C163.226 198.007 163.016 198.627 163.016 199.43C163.016 200.233 163.226 200.853 163.646 201.292C164.066 201.731 164.622 201.95 165.312 201.95Z" fill="black"/>
</svg>
