<svg width="476" height="476" viewBox="0 0 476 476" fill="none" xmlns="http://www.w3.org/2000/svg">
<g clip-path="url(#clip0)">
<path d="M238 476C369.444 476 476 369.444 476 238C476 106.556 369.444 0 238 0C106.556 0 0 106.556 0 238C0 369.444 106.556 476 238 476Z" fill="#C4C4C4"/>
<path d="M242.077 0.0354583C110.651 -2.21093 2.28084 102.561 0.0354656 234.046C-1.2399 308.6 31.9736 375.605 84.8565 420.164C88.3144 417.145 92.0238 414.378 96.1463 412.131L167.163 373.377C176.477 368.291 182.279 358.523 182.279 347.902V318.789C182.279 318.789 161.433 293.845 153.484 259.188C146.892 254.92 142.473 247.543 142.473 239.141V207.278C142.473 200.27 145.589 194.007 150.43 189.622V143.562C150.43 143.562 140.973 71.884 238 71.884C335.027 71.884 325.569 143.562 325.569 143.562V189.622C330.419 194.007 333.527 200.27 333.527 207.278V239.141C333.527 249.852 326.342 258.865 316.588 261.875C311.154 278.777 303.313 294.888 292.948 309.534C290.335 313.227 287.892 316.354 285.754 318.789V348.639C285.754 359.629 291.96 369.683 301.786 374.59L377.832 412.625C382.395 414.908 386.517 417.792 390.317 421C441.601 378.211 474.734 314.234 475.964 242.187C478.227 110.702 373.512 2.28185 242.077 0.0354583Z" fill="#707487"/>
</g>
<defs>
<clipPath id="clip0">
<rect width="476" height="476" fill="white"/>
</clipPath>
</defs>
</svg>
