<svg width="240" height="180" viewBox="0 0 240 180" fill="none" xmlns="http://www.w3.org/2000/svg">
<rect width="240" height="180" fill="#216024" fill-opacity="0.2"/>
<path d="M105.147 63.1478C107.925 63.1478 110.177 60.896 110.177 58.1183C110.177 55.3406 107.925 53.0889 105.147 53.0889C102.37 53.0889 100.118 55.3406 100.118 58.1183C100.118 60.896 102.37 63.1478 105.147 63.1478Z" fill="#293144"/>
<path d="M139.931 86.8994C138.998 85.4997 136.68 85.4997 135.747 86.8994L130.717 94.4436C130.204 95.2147 130.155 96.2069 130.592 97.0247C131.029 97.8425 131.881 98.3533 132.809 98.3533H135.324V103.383C135.324 104.771 136.449 105.897 137.839 105.897C139.229 105.897 140.354 104.771 140.354 103.383V98.3533H142.868C143.797 98.3533 144.649 97.8425 145.086 97.0247C145.523 96.2069 145.474 95.2147 144.961 94.4436L139.931 86.8994Z" fill="#293144"/>
<path d="M155.442 38H85.0295C82.2519 38 80 40.2519 80 43.0295V93.3242C80 96.1017 82.2519 98.3536 85.0295 98.3536H115.355C116.611 109.652 126.209 118.472 137.839 118.472C150.319 118.472 160.472 108.318 160.472 95.8389V93.3242V43.0295C160.472 40.2519 158.22 38 155.442 38ZM111.812 71.297C110.926 70.5369 109.632 70.4879 108.689 71.1778L90.0589 84.8401V48.0589H150.413V75.721C150.413 75.721 140.437 65.2314 137.289 61.5769C136.798 61.0076 136.113 60.6436 135.361 60.6326C134.639 60.6166 133.892 60.9457 133.409 61.5192L119.499 77.8834L111.812 71.297ZM155.242 98.3536C154.019 106.881 146.706 113.442 137.839 113.442C128.972 113.442 121.659 106.881 120.436 98.3536C120.318 97.5304 120.236 96.6947 120.236 95.8389C120.236 86.1171 128.116 78.2358 137.839 78.2358C147.561 78.2358 155.442 86.1171 155.442 95.8389C155.442 96.6947 155.36 97.5304 155.242 98.3536Z" fill="#293144"/>
<path d="M76.67 153.14C75.7367 153.14 74.8967 152.939 74.15 152.538C73.4127 152.127 72.8293 151.544 72.4 150.788C71.98 150.023 71.77 149.131 71.77 148.114C71.77 147.097 71.98 146.21 72.4 145.454C72.8293 144.689 73.4127 144.105 74.15 143.704C74.8967 143.293 75.7367 143.088 76.67 143.088C77.3047 143.088 77.8693 143.163 78.364 143.312C78.868 143.461 79.3673 143.676 79.862 143.956C80.0673 144.068 80.17 144.245 80.17 144.488C80.17 144.628 80.1187 144.754 80.016 144.866C79.9133 144.969 79.778 145.02 79.61 145.02C79.5167 145.02 79.4327 145.001 79.358 144.964C78.9473 144.749 78.546 144.586 78.154 144.474C77.762 144.362 77.3093 144.306 76.796 144.306C75.9933 144.306 75.3073 144.474 74.738 144.81C74.178 145.137 73.7533 145.589 73.464 146.168C73.184 146.737 73.044 147.386 73.044 148.114C73.044 148.842 73.184 149.495 73.464 150.074C73.7533 150.643 74.178 151.096 74.738 151.432C75.3073 151.759 75.9933 151.922 76.796 151.922C77.3093 151.922 77.762 151.866 78.154 151.754C78.546 151.642 78.9473 151.479 79.358 151.264C79.4327 151.227 79.5167 151.208 79.61 151.208C79.778 151.208 79.9133 151.259 80.016 151.362C80.1187 151.465 80.17 151.591 80.17 151.74C80.17 151.983 80.0673 152.16 79.862 152.272C79.3673 152.552 78.868 152.767 78.364 152.916C77.8693 153.065 77.3047 153.14 76.67 153.14ZM82.4704 153.07C82.293 153.07 82.1437 153.009 82.0224 152.888C81.901 152.767 81.8404 152.617 81.8404 152.44V143.354C81.8404 143.177 81.901 143.027 82.0224 142.906C82.1437 142.775 82.293 142.71 82.4704 142.71C82.657 142.71 82.811 142.771 82.9324 142.892C83.0537 143.013 83.1144 143.167 83.1144 143.354V152.44C83.1144 152.617 83.049 152.767 82.9184 152.888C82.797 153.009 82.6477 153.07 82.4704 153.07ZM85.9287 144.404C85.7327 144.404 85.5647 144.334 85.4247 144.194C85.2847 144.054 85.2147 143.886 85.2147 143.69V143.634C85.2147 143.438 85.2847 143.27 85.4247 143.13C85.5647 142.99 85.7327 142.92 85.9287 142.92H86.0127C86.2087 142.92 86.3767 142.99 86.5167 143.13C86.6567 143.27 86.7267 143.438 86.7267 143.634V143.69C86.7267 143.886 86.6567 144.054 86.5167 144.194C86.3767 144.334 86.2087 144.404 86.0127 144.404H85.9287ZM85.9567 153.07C85.7794 153.07 85.63 153.009 85.5087 152.888C85.3874 152.767 85.3267 152.617 85.3267 152.44V146.434C85.3267 146.257 85.3874 146.107 85.5087 145.986C85.63 145.855 85.7794 145.79 85.9567 145.79C86.1434 145.79 86.2974 145.851 86.4187 145.972C86.54 146.093 86.6007 146.247 86.6007 146.434V152.44C86.6007 152.617 86.5354 152.767 86.4047 152.888C86.2834 153.009 86.134 153.07 85.9567 153.07ZM92.117 153.14C91.445 153.14 90.8244 152.991 90.255 152.692C89.6857 152.393 89.2284 151.964 88.883 151.404C88.547 150.844 88.379 150.186 88.379 149.43C88.379 148.674 88.547 148.016 88.883 147.456C89.2284 146.896 89.6857 146.467 90.255 146.168C90.8244 145.869 91.445 145.72 92.117 145.72C92.6117 145.72 93.0364 145.785 93.391 145.916C93.755 146.037 94.091 146.196 94.399 146.392C94.5857 146.513 94.679 146.677 94.679 146.882C94.679 147.022 94.623 147.153 94.511 147.274C94.4084 147.386 94.287 147.442 94.147 147.442C94.0444 147.442 93.9417 147.414 93.839 147.358C93.531 147.199 93.265 147.087 93.041 147.022C92.8264 146.947 92.5557 146.91 92.229 146.91C91.4264 146.91 90.7964 147.143 90.339 147.61C89.8817 148.067 89.653 148.674 89.653 149.43C89.653 150.186 89.8817 150.797 90.339 151.264C90.7964 151.721 91.4264 151.95 92.229 151.95C92.5557 151.95 92.8264 151.917 93.041 151.852C93.265 151.777 93.531 151.661 93.839 151.502C93.9417 151.446 94.0444 151.418 94.147 151.418C94.287 151.418 94.4084 151.479 94.511 151.6C94.623 151.712 94.679 151.838 94.679 151.978C94.679 152.183 94.5857 152.347 94.399 152.468C94.091 152.664 93.755 152.827 93.391 152.958C93.0364 153.079 92.6117 153.14 92.117 153.14ZM96.9079 153.07C96.7305 153.07 96.5812 153.009 96.4599 152.888C96.3385 152.767 96.2779 152.617 96.2779 152.44V143.354C96.2779 143.177 96.3385 143.027 96.4599 142.906C96.5812 142.775 96.7305 142.71 96.9079 142.71C97.0852 142.71 97.2345 142.775 97.3559 142.906C97.4865 143.027 97.5519 143.177 97.5519 143.354V149.08L100.884 146C101.024 145.879 101.164 145.818 101.304 145.818C101.519 145.818 101.673 145.879 101.766 146C101.869 146.121 101.92 146.266 101.92 146.434C101.92 146.593 101.841 146.751 101.682 146.91L99.6659 148.716L102.2 152.076C102.293 152.197 102.34 152.323 102.34 152.454C102.34 152.641 102.279 152.79 102.158 152.902C102.037 153.014 101.883 153.07 101.696 153.07C101.603 153.07 101.509 153.047 101.416 153C101.323 152.953 101.243 152.888 101.178 152.804L98.7699 149.528L97.5519 150.634V152.44C97.5519 152.617 97.4865 152.767 97.3559 152.888C97.2345 153.009 97.0852 153.07 96.9079 153.07ZM110.008 153.14C108.645 153.14 107.964 152.524 107.964 151.292V146.952H106.97C106.895 146.952 106.83 146.929 106.774 146.882C106.727 146.826 106.704 146.761 106.704 146.686C106.704 146.593 106.746 146.513 106.83 146.448L108.734 144.586C108.818 144.502 108.897 144.46 108.972 144.46C109.046 144.46 109.107 144.488 109.154 144.544C109.21 144.6 109.238 144.665 109.238 144.74V145.86H110.82C110.978 145.86 111.109 145.911 111.212 146.014C111.314 146.117 111.366 146.247 111.366 146.406C111.366 146.555 111.314 146.686 111.212 146.798C111.109 146.901 110.978 146.952 110.82 146.952H109.238V151.18C109.238 151.544 109.322 151.777 109.49 151.88C109.667 151.973 109.886 152.02 110.148 152.02C110.334 152.02 110.521 151.992 110.708 151.936C110.745 151.927 110.782 151.917 110.82 151.908C110.866 151.899 110.922 151.894 110.988 151.894C111.118 151.894 111.235 151.945 111.338 152.048C111.44 152.141 111.492 152.258 111.492 152.398C111.492 152.613 111.384 152.776 111.17 152.888C110.806 153.056 110.418 153.14 110.008 153.14ZM115.944 153.14C115.225 153.14 114.595 152.986 114.054 152.678C113.512 152.37 113.092 151.936 112.794 151.376C112.504 150.807 112.36 150.158 112.36 149.43C112.36 148.702 112.504 148.058 112.794 147.498C113.092 146.929 113.512 146.49 114.054 146.182C114.595 145.874 115.225 145.72 115.944 145.72C116.653 145.72 117.278 145.874 117.82 146.182C118.361 146.49 118.781 146.929 119.079 147.498C119.378 148.058 119.528 148.702 119.528 149.43C119.528 150.158 119.378 150.807 119.079 151.376C118.781 151.936 118.361 152.37 117.82 152.678C117.278 152.986 116.653 153.14 115.944 153.14ZM115.944 151.978C116.326 151.978 116.69 151.889 117.036 151.712C117.39 151.535 117.68 151.255 117.904 150.872C118.137 150.489 118.254 150.004 118.254 149.416C118.254 148.837 118.137 148.357 117.904 147.974C117.68 147.591 117.39 147.316 117.036 147.148C116.69 146.971 116.326 146.882 115.944 146.882C115.552 146.882 115.178 146.971 114.824 147.148C114.478 147.316 114.194 147.591 113.97 147.974C113.746 148.357 113.634 148.837 113.634 149.416C113.634 150.004 113.746 150.489 113.97 150.872C114.194 151.255 114.478 151.535 114.824 151.712C115.178 151.889 115.552 151.978 115.944 151.978ZM127.384 153.14C126.87 153.14 126.422 153.019 126.04 152.776C125.666 152.533 125.377 152.202 125.172 151.782C124.976 151.362 124.878 150.9 124.878 150.396V146.42C124.878 146.243 124.938 146.093 125.06 145.972C125.19 145.851 125.344 145.79 125.522 145.79C125.699 145.79 125.848 145.851 125.97 145.972C126.091 146.093 126.152 146.243 126.152 146.42V150.256C126.152 151.395 126.665 151.964 127.692 151.964C128.158 151.964 128.574 151.843 128.938 151.6C129.311 151.357 129.661 151.031 129.988 150.62V146.42C129.988 146.243 130.048 146.093 130.17 145.972C130.3 145.851 130.454 145.79 130.632 145.79C130.809 145.79 130.958 145.851 131.08 145.972C131.201 146.093 131.262 146.243 131.262 146.42V152.426C131.262 152.603 131.201 152.757 131.08 152.888C130.958 153.009 130.809 153.07 130.632 153.07C130.454 153.07 130.3 153.009 130.17 152.888C130.048 152.757 129.988 152.603 129.988 152.426V151.852C129.633 152.244 129.25 152.557 128.84 152.79C128.429 153.023 127.944 153.14 127.384 153.14ZM134.109 156.29C133.932 156.29 133.782 156.225 133.661 156.094C133.54 155.973 133.479 155.823 133.479 155.646V146.42C133.479 146.243 133.54 146.093 133.661 145.972C133.782 145.851 133.932 145.79 134.109 145.79C134.286 145.79 134.436 145.851 134.557 145.972C134.688 146.093 134.753 146.243 134.753 146.42V146.784C135.434 146.075 136.232 145.72 137.147 145.72C137.726 145.72 138.272 145.869 138.785 146.168C139.308 146.457 139.728 146.887 140.045 147.456C140.372 148.016 140.535 148.674 140.535 149.43C140.535 150.186 140.372 150.849 140.045 151.418C139.728 151.978 139.308 152.407 138.785 152.706C138.272 152.995 137.726 153.14 137.147 153.14C136.232 153.14 135.434 152.785 134.753 152.076V155.646C134.753 155.833 134.692 155.987 134.571 156.108C134.45 156.229 134.296 156.29 134.109 156.29ZM136.965 151.95C137.656 151.95 138.211 151.731 138.631 151.292C139.051 150.853 139.261 150.233 139.261 149.43C139.261 148.627 139.051 148.007 138.631 147.568C138.211 147.129 137.656 146.91 136.965 146.91C136.536 146.91 136.13 147.008 135.747 147.204C135.374 147.391 135.042 147.643 134.753 147.96V150.9C135.042 151.217 135.374 151.474 135.747 151.67C136.13 151.857 136.536 151.95 136.965 151.95ZM142.941 153.07C142.764 153.07 142.614 153.009 142.493 152.888C142.372 152.767 142.311 152.617 142.311 152.44V143.354C142.311 143.177 142.372 143.027 142.493 142.906C142.614 142.775 142.764 142.71 142.941 142.71C143.128 142.71 143.282 142.771 143.403 142.892C143.524 143.013 143.585 143.167 143.585 143.354V152.44C143.585 152.617 143.52 152.767 143.389 152.888C143.268 153.009 143.118 153.07 142.941 153.07ZM148.947 153.14C148.229 153.14 147.599 152.986 147.057 152.678C146.516 152.37 146.096 151.936 145.797 151.376C145.508 150.807 145.363 150.158 145.363 149.43C145.363 148.702 145.508 148.058 145.797 147.498C146.096 146.929 146.516 146.49 147.057 146.182C147.599 145.874 148.229 145.72 148.947 145.72C149.657 145.72 150.282 145.874 150.823 146.182C151.365 146.49 151.785 146.929 152.083 147.498C152.382 148.058 152.531 148.702 152.531 149.43C152.531 150.158 152.382 150.807 152.083 151.376C151.785 151.936 151.365 152.37 150.823 152.678C150.282 152.986 149.657 153.14 148.947 153.14ZM148.947 151.978C149.33 151.978 149.694 151.889 150.039 151.712C150.394 151.535 150.683 151.255 150.907 150.872C151.141 150.489 151.257 150.004 151.257 149.416C151.257 148.837 151.141 148.357 150.907 147.974C150.683 147.591 150.394 147.316 150.039 147.148C149.694 146.971 149.33 146.882 148.947 146.882C148.555 146.882 148.182 146.971 147.827 147.148C147.482 147.316 147.197 147.591 146.973 147.974C146.749 148.357 146.637 148.837 146.637 149.416C146.637 150.004 146.749 150.489 146.973 150.872C147.197 151.255 147.482 151.535 147.827 151.712C148.182 151.889 148.555 151.978 148.947 151.978ZM156.135 153.14C155.724 153.14 155.342 153.056 154.987 152.888C154.642 152.72 154.366 152.477 154.161 152.16C153.956 151.833 153.853 151.46 153.853 151.04C153.853 150.349 154.124 149.799 154.665 149.388C155.216 148.977 156.018 148.772 157.073 148.772H158.767V148.66C158.767 148.044 158.613 147.601 158.305 147.33C158.006 147.059 157.535 146.924 156.891 146.924C156.536 146.924 156.219 146.952 155.939 147.008C155.668 147.064 155.365 147.148 155.029 147.26C154.954 147.279 154.894 147.288 154.847 147.288C154.707 147.288 154.586 147.237 154.483 147.134C154.38 147.031 154.329 146.905 154.329 146.756C154.329 146.504 154.45 146.327 154.693 146.224C155.486 145.888 156.294 145.72 157.115 145.72C157.759 145.72 158.3 145.851 158.739 146.112C159.187 146.373 159.514 146.714 159.719 147.134C159.934 147.545 160.041 147.993 160.041 148.478V152.44C160.041 152.617 159.976 152.767 159.845 152.888C159.724 153.009 159.574 153.07 159.397 153.07C159.22 153.07 159.07 153.009 158.949 152.888C158.828 152.767 158.767 152.617 158.767 152.44V152.076C158.076 152.785 157.199 153.14 156.135 153.14ZM156.611 152.02C157.022 152.02 157.418 151.922 157.801 151.726C158.184 151.521 158.506 151.269 158.767 150.97V149.794H157.241C155.832 149.794 155.127 150.163 155.127 150.9C155.127 151.236 155.239 151.507 155.463 151.712C155.696 151.917 156.079 152.02 156.611 152.02ZM165.13 153.14C164.552 153.14 164.001 152.995 163.478 152.706C162.965 152.407 162.545 151.978 162.218 151.418C161.901 150.849 161.742 150.186 161.742 149.43C161.742 148.674 161.901 148.016 162.218 147.456C162.545 146.887 162.965 146.457 163.478 146.168C164.001 145.869 164.552 145.72 165.13 145.72C166.045 145.72 166.843 146.075 167.524 146.784V143.354C167.524 143.167 167.585 143.013 167.706 142.892C167.837 142.771 167.991 142.71 168.168 142.71C168.346 142.71 168.495 142.775 168.616 142.906C168.738 143.027 168.798 143.177 168.798 143.354V152.44C168.798 152.617 168.738 152.767 168.616 152.888C168.495 153.009 168.346 153.07 168.168 153.07C167.991 153.07 167.837 153.009 167.706 152.888C167.585 152.767 167.524 152.617 167.524 152.44V152.076C166.843 152.785 166.045 153.14 165.13 153.14ZM165.312 151.95C165.742 151.95 166.143 151.857 166.516 151.67C166.899 151.474 167.235 151.217 167.524 150.9V147.96C167.235 147.643 166.899 147.391 166.516 147.204C166.143 147.008 165.742 146.91 165.312 146.91C164.622 146.91 164.066 147.129 163.646 147.568C163.226 148.007 163.016 148.627 163.016 149.43C163.016 150.233 163.226 150.853 163.646 151.292C164.066 151.731 164.622 151.95 165.312 151.95Z" fill="#293144"/>
</svg>
