<svg width="512" height="512" viewBox="0 0 512 512" fill="none" xmlns="http://www.w3.org/2000/svg">
<g opacity="0.1">
<path d="M128 307.2C137.426 307.2 145.067 299.559 145.067 290.133C145.067 280.707 137.426 273.066 128 273.066C118.574 273.066 110.933 280.707 110.933 290.133C110.933 299.559 118.574 307.2 128 307.2Z" fill="#F46B27"/>
<path d="M230.4 366.934C239.826 366.934 247.467 359.293 247.467 349.867C247.467 340.441 239.826 332.8 230.4 332.8C220.974 332.8 213.333 340.441 213.333 349.867C213.333 359.293 220.974 366.934 230.4 366.934Z" fill="#F46B27"/>
<path d="M332.8 264.534C342.226 264.534 349.867 256.893 349.867 247.467C349.867 238.041 342.226 230.4 332.8 230.4C323.374 230.4 315.733 238.041 315.733 247.467C315.733 256.893 323.374 264.534 332.8 264.534Z" fill="#F46B27"/>
<path d="M31.573 398.592L19.626 386.475L123.05 284.075C125.806 281.353 130.039 280.832 133.375 282.795L229.034 339.2L326.741 241.408C329.864 238.276 334.873 238.054 338.261 240.896L440.661 326.229L429.738 339.37L333.311 258.986L236.458 355.925C233.693 358.69 229.401 359.21 226.047 357.205L130.389 300.8L31.573 398.592Z" fill="#F46B27"/>
<path d="M128 196.267C137.426 196.267 145.067 188.626 145.067 179.2C145.067 169.774 137.426 162.133 128 162.133C118.574 162.133 110.933 169.774 110.933 179.2C110.933 188.626 118.574 196.267 128 196.267Z" fill="#2AAE27"/>
<path d="M221.867 93.867C231.293 93.867 238.934 86.2259 238.934 76.8C238.934 67.3742 231.293 59.733 221.867 59.733C212.441 59.733 204.8 67.3742 204.8 76.8C204.8 86.2259 212.441 93.867 221.867 93.867Z" fill="#2AAE27"/>
<path d="M332.8 128C342.226 128 349.867 120.359 349.867 110.933C349.867 101.507 342.226 93.8661 332.8 93.8661C323.374 93.8661 315.733 101.507 315.733 110.933C315.733 120.359 323.374 128 332.8 128Z" fill="#2AAE27"/>
<path d="M31.3171 279.381L19.8821 266.752L121.173 175.019L215.552 72.1071C217.728 69.7771 221.022 68.8561 224.085 69.7181L331.434 101.718L430.933 43.8621L439.466 58.5391L337.066 118.272C335.035 119.475 332.595 119.782 330.325 119.125L224.512 87.5521L133.205 187.136L31.3171 279.381Z" fill="#2AAE27"/>
<path d="M512 443.733H25.5999C20.8899 443.733 17.0669 439.91 17.0669 435.2V0H34.1339V426.667H512V443.733Z" fill="#4398D1"/>
<path d="M25.6 324.267H0V341.334H25.6V324.267Z" fill="#4398D1"/>
<path d="M25.6 221.867H0V238.934H25.6V221.867Z" fill="#4398D1"/>
<path d="M25.6 119.467H0V136.534H25.6V119.467Z" fill="#4398D1"/>
<path d="M341.334 435.2H324.267V460.8H341.334V435.2Z" fill="#4398D1"/>
<path d="M238.934 435.2H221.867V460.8H238.934V435.2Z" fill="#4398D1"/>
<path d="M136.534 435.2H119.467V460.8H136.534V435.2Z" fill="#4398D1"/>
<path d="M443.734 435.2H426.667V460.8H443.734V435.2Z" fill="#4398D1"/>
<path d="M179.2 494.933H162.133V512H179.2V494.933Z" fill="#87CED9"/>
<path d="M213.334 494.933H196.267V512H213.334V494.933Z" fill="#87CED9"/>
<path d="M247.467 494.933H230.4V512H247.467V494.933Z" fill="#87CED9"/>
<path d="M281.6 494.933H264.533V512H281.6V494.933Z" fill="#87CED9"/>
<path d="M315.734 494.933H298.667V512H315.734V494.933Z" fill="#87CED9"/>
<path d="M349.867 494.933H332.8V512H349.867V494.933Z" fill="#87CED9"/>
<path d="M25.6 17.067H0V34.134H25.6V17.067Z" fill="#4398D1"/>
<path d="M435.2 349.867C444.626 349.867 452.267 342.226 452.267 332.8C452.267 323.374 444.626 315.733 435.2 315.733C425.774 315.733 418.133 323.374 418.133 332.8C418.133 342.226 425.774 349.867 435.2 349.867Z" fill="#F46B27"/>
<path d="M435.2 68.2671C444.626 68.2671 452.267 60.6259 452.267 51.2001C452.267 41.7742 444.626 34.1331 435.2 34.1331C425.774 34.1331 418.133 41.7742 418.133 51.2001C418.133 60.6259 425.774 68.2671 435.2 68.2671Z" fill="#27AE60"/>
</g>
</svg>
