<svg width="1390" height="1390" viewBox="0 0 1390 1390" fill="none" xmlns="http://www.w3.org/2000/svg">
<path d="M695 1390C1078.84 1390 1390 1078.84 1390 695C1390 311.162 1078.84 0 695 0C311.162 0 0 311.162 0 695C0 1078.84 311.162 1390 695 1390Z" fill="#C4C4C4"/>
<path d="M706.906 0.103544C323.12 -6.45629 6.66044 299.495 0.103566 683.454C-3.62072 901.164 93.3683 1096.83 247.795 1226.95C257.893 1218.13 268.725 1210.05 280.763 1203.49L488.144 1090.32C515.343 1075.47 532.285 1046.95 532.285 1015.93V930.917C532.285 930.917 471.411 858.077 448.199 756.873C428.949 744.409 416.045 722.867 416.045 698.332V605.287C416.045 584.822 425.144 566.533 439.281 553.728V419.225C439.281 419.225 411.665 209.913 695 209.913C978.335 209.913 950.716 419.225 950.716 419.225V553.728C964.879 566.533 973.955 584.822 973.955 605.287V698.332C973.955 729.61 952.974 755.929 924.49 764.719C908.622 814.076 885.725 861.123 855.457 903.891C847.827 914.676 840.693 923.807 834.45 930.917V1018.08C834.45 1050.18 852.572 1079.54 881.266 1093.87L1103.33 1204.93C1116.66 1211.6 1128.69 1220.02 1139.79 1229.39C1289.55 1104.44 1386.3 917.616 1389.89 707.227C1396.5 323.268 1090.72 6.66339 706.906 0.103544Z" fill="#9E6F89"/>
<circle cx="695" cy="695" r="695" fill="black" fill-opacity="0.25"/>
<path d="M619 911H479V771C479 759.954 470.046 751 459 751C447.954 751 439 759.954 439 771V931C439 942.046 447.954 951 459 951H619C630.046 951 639 942.046 639 931C639 919.954 630.046 911 619 911Z" fill="black" fill-opacity="0.5"/>
<path d="M619 439H459C447.954 439 439 447.954 439 459V619C439 630.046 447.954 639 459 639C470.046 639 479 630.046 479 619V479H619C630.046 479 639 470.046 639 459C639 447.954 630.046 439 619 439Z" fill="black" fill-opacity="0.5"/>
<path d="M931 751C919.954 751 911 759.954 911 771V911H771C759.954 911 751 919.954 751 931C751 942.046 759.954 951 771 951H931C942.046 951 951 942.046 951 931V771C951 759.954 942.046 751 931 751Z" fill="black" fill-opacity="0.5"/>
<path d="M931 439H771C759.954 439 751 447.954 751 459C751 470.046 759.954 479 771 479H911V619C911 630.046 919.954 639 931 639C942.046 639 951 630.046 951 619V459C951 447.954 942.046 439 931 439Z" fill="black" fill-opacity="0.5"/>
<path d="M788.545 625.645L761.574 625.504L735.733 586.954C734.179 584.553 731.497 583 728.672 583H659.057C656.233 583 653.691 584.553 652.138 586.813L625.449 625.504L600.455 625.645C581.533 625.645 566 641.178 566 660.1V771.513C566 790.436 581.533 806.251 600.455 806.251H788.545C807.467 806.251 823 790.436 823 771.513V660.1C823 641.178 807.467 625.645 788.545 625.645ZM806.055 771.513C806.055 781.116 798.148 789.306 788.546 789.306H600.455C590.853 789.306 582.946 781.116 582.946 771.513V660.1C582.946 650.497 590.853 642.59 600.455 642.59H629.968C632.793 642.59 635.334 641.036 636.887 638.777L663.576 600.086H724.154L749.855 638.495C751.408 640.754 754.091 642.308 756.774 642.308L788.405 642.59C798.007 642.59 805.914 650.498 805.914 660.1V771.514H806.055V771.513Z" fill="black" fill-opacity="0.5"/>
<path d="M695.206 645.979C662.022 645.979 635.192 672.95 635.192 705.993C635.192 739.036 662.163 766.006 695.206 766.006C728.249 766.006 755.22 739.035 755.22 705.992C755.22 672.949 728.249 645.979 695.206 645.979ZM695.206 749.061C671.483 749.061 652.137 729.715 652.137 705.992C652.137 682.269 671.483 662.923 695.206 662.923C718.929 662.923 738.275 682.269 738.275 705.992C738.275 729.715 718.929 749.061 695.206 749.061Z" fill="black" fill-opacity="0.5"/>
<path d="M775.554 674.08C777.348 674.08 778.802 672.626 778.802 670.832C778.802 669.038 777.348 667.584 775.554 667.584C773.761 667.584 772.306 669.038 772.306 670.832C772.306 672.626 773.761 674.08 775.554 674.08Z" fill="black" fill-opacity="0.5"/>
<path d="M775.554 659.111C769.059 659.111 763.834 664.336 763.834 670.832C763.834 677.328 769.058 682.552 775.554 682.552C782.05 682.552 787.275 677.328 787.275 670.832C787.275 664.336 782.05 659.111 775.554 659.111ZM775.554 676.056C772.589 676.056 770.33 673.656 770.33 670.832C770.33 668.008 772.73 665.607 775.554 665.607C778.379 665.607 780.779 668.008 780.779 670.832C780.779 673.656 778.52 676.056 775.554 676.056Z" fill="black" fill-opacity="0.5"/>
</svg>
