<svg width="432" height="512" viewBox="0 0 432 512" fill="none" xmlns="http://www.w3.org/2000/svg">
<path d="M352 512H0V0H352V512Z" fill="#FCEEA9"/>
<path d="M176 0H352V512H176V0Z" fill="#FBDE55"/>
<path d="M145 60H292V90H145V60Z" fill="#FFAF37"/>
<path d="M380.242 370H293.758L278.316 246.477C276.215 229.652 281.445 212.711 292.664 200C303.887 187.289 320.047 180 337 180C353.953 180 370.113 187.289 381.336 200C392.555 212.711 397.785 229.648 395.684 246.477L380.242 370Z" fill="#92D6F4"/>
<path d="M145 120H292V150H145V120Z" fill="#FFAF37"/>
<path d="M60 180H247V210H60V180Z" fill="#FFAF37"/>
<path d="M60 240H247V270H60V240Z" fill="#FFAF37"/>
<path d="M135 450C93.6445 450 60 416.355 60 375C60 333.645 93.6445 300 135 300C176.355 300 210 333.645 210 375C210 416.355 176.355 450 135 450ZM135 330C110.188 330 90 350.188 90 375C90 399.812 110.188 420 135 420C159.812 420 180 399.812 180 375C180 350.188 159.812 330 135 330Z" fill="#15E890"/>
<path d="M176 60H292V90H176V60Z" fill="#FF9900"/>
<path d="M176 120H292V150H176V120Z" fill="#FF9900"/>
<path d="M176 180H247V210H176V180Z" fill="#FF9900"/>
<path d="M176 240H247V270H176V240Z" fill="#FF9900"/>
<path d="M176 312.246V356.488C178.562 362.141 180 368.402 180 375C180 381.598 178.562 387.859 176 393.512V437.754C196.453 424.344 210 401.23 210 375C210 348.77 196.453 325.656 176 312.246V312.246Z" fill="#10C47A"/>
<path d="M380.242 370L395.684 246.477C397.785 229.652 392.559 212.711 381.336 200C370.113 187.289 353.953 180 337 180V370H380.242Z" fill="#4BBAED"/>
<path d="M432 430H242V375C242 355.699 257.699 340 277 340H397C416.301 340 432 355.699 432 375V430Z" fill="#0999DB"/>
<path d="M432 375C432 355.699 416.301 340 397 340H337V430H432V375Z" fill="#0673A4"/>
</svg>
