<svg width="399" height="512" viewBox="0 0 399 512" fill="none" xmlns="http://www.w3.org/2000/svg">
<path d="M339 512H0V60H339V512Z" fill="#0999DB"/>
<path d="M169.5 60H339V512H169.5V60Z" fill="#0673A4"/>
<path d="M399 452H60V0H300.215L399 98.7852V452Z" fill="#FCEEA9"/>
<path d="M399 98.7852L300.215 0H229.5V452H399V98.7852Z" fill="#FBDE55"/>
<path d="M205 150H339V180H205V150Z" fill="#FFAF37"/>
<path d="M120 210H339V240H120V210Z" fill="#FFAF37"/>
<path d="M120 270H339V300H120V270Z" fill="#FFAF37"/>
<path d="M120 330H284V360H120V330Z" fill="#FFAF37"/>
<path d="M279 0V120H399V98.7852L300.215 0H279Z" fill="#FFB62C"/>
<path d="M229.5 150H339V180H229.5V150Z" fill="#FF9900"/>
<path d="M229.5 210H339V240H229.5V210Z" fill="#FF9900"/>
<path d="M229.5 270H339V300H229.5V270Z" fill="#FF9900"/>
<path d="M229.5 330H284V360H229.5V330Z" fill="#FF9900"/>
<path d="M186 138.375V129.125H175.143V106H164.286V129.125H145.177L130.195 106H120.857V129.125H110V138.375H120.857V147.625H110V156.875H120.857V180H131.714V156.875H150.823L165.805 180H175.143V156.875H186V147.625H175.143V138.375H186ZM131.714 147.625V138.375H138.771L144.852 147.625H131.714ZM164.286 158.54L163.2 156.875H164.286V158.54ZM164.286 147.625H157.229L151.148 138.375H164.286V147.625Z" fill="#FF9100"/>
</svg>
